<svg xmlns="http://www.w3.org/2000/svg" width="153.95" height="35" viewBox="0 0 153.95 35"><rect class="svg__rect" x="0" y="0" width="0" height="35" fill="#EA4560"/><rect class="svg__rect" x="0" y="0" width="153.95" height="35" fill="#C13B3A"/><path class="svg__text" d="" fill="#FFFFFF"/><path class="svg__text" d="M16.57 22L14.19 22L14.19 13.60L18.03 13.60Q19.17 13.60 20.01 13.98Q20.85 14.35 21.31 15.06Q21.76 15.76 21.76 16.71L21.76 16.71Q21.76 17.62 21.34 18.30Q20.91 18.98 20.12 19.36L20.12 19.36L21.93 22L19.39 22L17.86 19.77L16.57 19.77L16.57 22ZM16.57 15.47L16.57 17.93L17.89 17.93Q18.62 17.93 18.99 17.61Q19.36 17.29 19.36 16.71L19.36 16.71Q19.36 16.12 18.99 15.79Q18.62 15.47 17.89 15.47L17.89 15.47L16.57 15.47ZM27.97 22L25.54 22L29.25 13.60L31.60 13.60L35.31 22L32.84 22L32.18 20.37L28.63 20.37L27.97 22ZM30.41 15.93L29.32 18.61L31.48 18.61L30.41 15.93ZM41.80 22L39.47 22L39.47 13.60L41.42 13.60L45.13 18.07L45.13 13.60L47.46 13.60L47.46 22L45.51 22L41.80 17.52L41.80 22ZM52.03 21.24L52.03 21.24L52.81 19.49Q53.38 19.86 54.12 20.09Q54.86 20.32 55.58 20.32L55.58 20.32Q56.95 20.32 56.96 19.64L56.96 19.64Q56.96 19.28 56.57 19.11Q56.18 18.93 55.31 18.74L55.31 18.74Q54.36 18.53 53.72 18.30Q53.09 18.06 52.63 17.55Q52.18 17.03 52.18 16.16L52.18 16.16Q52.18 15.39 52.60 14.77Q53.02 14.15 53.85 13.79Q54.69 13.43 55.89 13.43L55.89 13.43Q56.72 13.43 57.53 13.62Q58.33 13.80 58.95 14.17L58.95 14.17L58.22 15.93Q57.01 15.28 55.88 15.28L55.88 15.28Q55.17 15.28 54.85 15.49Q54.53 15.70 54.53 16.04L54.53 16.04Q54.53 16.37 54.91 16.54Q55.30 16.71 56.15 16.89L56.15 16.89Q57.11 17.10 57.74 17.33Q58.37 17.56 58.83 18.07Q59.29 18.58 59.29 19.46L59.29 19.46Q59.29 20.21 58.87 20.83Q58.46 21.44 57.61 21.80Q56.77 22.17 55.57 22.17L55.57 22.17Q54.55 22.17 53.59 21.92Q52.63 21.67 52.03 21.24ZM63.44 17.80L63.44 17.80Q63.44 16.55 64.05 15.55Q64.65 14.56 65.71 14.00Q66.78 13.43 68.11 13.43L68.11 13.43Q69.44 13.43 70.50 14.00Q71.56 14.56 72.17 15.55Q72.78 16.55 72.78 17.80L72.78 17.80Q72.78 19.05 72.17 20.04Q71.56 21.04 70.50 21.60Q69.44 22.17 68.11 22.17L68.11 22.17Q66.78 22.17 65.71 21.60Q64.65 21.04 64.05 20.04Q63.44 19.05 63.44 17.80ZM65.84 17.80L65.84 17.80Q65.84 18.51 66.14 19.05Q66.44 19.60 66.96 19.90Q67.47 20.20 68.11 20.20L68.11 20.20Q68.74 20.20 69.26 19.90Q69.78 19.60 70.07 19.05Q70.37 18.51 70.37 17.80L70.37 17.80Q70.37 17.09 70.07 16.54Q69.78 16 69.26 15.70Q68.74 15.40 68.11 15.40L68.11 15.40Q67.47 15.40 66.95 15.70Q66.44 16 66.14 16.54Q65.84 17.09 65.84 17.80ZM79.70 22L77.50 22L77.50 13.60L79.46 13.60L82.41 18.45L85.30 13.60L87.25 13.60L87.27 22L85.09 22L85.07 17.55L82.91 21.17L81.85 21.17L79.70 17.67L79.70 22ZM94.51 22L91.79 13.60L94.24 13.60L95.93 18.96L97.70 13.60L99.89 13.60L101.58 19.01L103.34 13.60L105.61 13.60L102.89 22L100.34 22L98.74 16.89L97.06 22L94.51 22ZM111.54 22L109.12 22L112.82 13.60L115.17 13.60L118.88 22L116.42 22L115.75 20.37L112.20 20.37L111.54 22ZM113.98 15.93L112.89 18.61L115.06 18.61L113.98 15.93ZM125.42 22L123.04 22L123.04 13.60L126.88 13.60Q128.02 13.60 128.86 13.98Q129.70 14.35 130.16 15.06Q130.61 15.76 130.61 16.71L130.61 16.71Q130.61 17.62 130.19 18.30Q129.76 18.98 128.97 19.36L128.97 19.36L130.78 22L128.23 22L126.71 19.77L125.42 19.77L125.42 22ZM125.42 15.47L125.42 17.93L126.73 17.93Q127.47 17.93 127.84 17.61Q128.21 17.29 128.21 16.71L128.21 16.71Q128.21 16.12 127.84 15.79Q127.47 15.47 126.73 15.47L126.73 15.47L125.42 15.47ZM142.14 22L135.40 22L135.40 13.60L141.99 13.60L141.99 15.44L137.76 15.44L137.76 16.85L141.49 16.85L141.49 18.63L137.76 18.63L137.76 20.17L142.14 20.17L142.14 22Z" fill="#FFFFFF" x="39"/></svg>