<svg xmlns="http://www.w3.org/2000/svg" width="168.87" height="35" viewBox="0 0 168.87 35"><rect class="svg__rect" x="0" y="0" width="45.49" height="35" fill="#EBEB00"/><rect class="svg__rect" x="43.49" y="0" width="125.38" height="35" fill="#F5F500"/><path class="svg__text" d="M13.97 18.51L13.97 18.51L13.97 17.03Q13.97 15.19 14.65 14.27Q15.34 13.35 16.75 13.35L16.75 13.35Q18.15 13.35 18.84 14.25Q19.53 15.14 19.55 16.93L19.55 16.93L19.55 18.41Q19.55 20.25 18.86 21.18Q18.17 22.12 16.77 22.12L16.77 22.12Q15.38 22.12 14.68 21.21Q13.98 20.29 13.97 18.51ZM15.38 16.68L15.38 18.61Q15.38 19.81 15.72 20.39Q16.05 20.98 16.77 20.98L16.77 20.98Q17.45 20.98 17.78 20.44Q18.11 19.90 18.13 18.74L18.13 18.74L18.13 16.81Q18.13 15.61 17.80 15.05Q17.47 14.49 16.75 14.49L16.75 14.49Q16.06 14.49 15.73 15.02Q15.40 15.55 15.38 16.68L15.38 16.68ZM23.74 15.53L23.74 15.53L23.74 15.11Q23.74 14.34 24.24 13.84Q24.73 13.35 25.54 13.35L25.54 13.35Q26.36 13.35 26.86 13.84Q27.35 14.34 27.35 15.14L27.35 15.14L27.35 15.56Q27.35 16.33 26.86 16.82Q26.36 17.31 25.56 17.31L25.56 17.31Q24.76 17.31 24.25 16.83Q23.74 16.35 23.74 15.53ZM24.73 15.13L24.73 15.56Q24.73 15.96 24.96 16.21Q25.19 16.46 25.56 16.46L25.56 16.46Q25.92 16.46 26.14 16.21Q26.36 15.96 26.36 15.54L26.36 15.54L26.36 15.11Q26.36 14.71 26.14 14.45Q25.91 14.20 25.54 14.20Q25.17 14.20 24.95 14.46Q24.73 14.71 24.73 15.13L24.73 15.13ZM25.85 21.36L25.12 20.94L29.28 14.27L30.01 14.69L25.85 21.36ZM27.84 20.34L27.84 20.34L27.84 19.91Q27.84 19.12 28.35 18.64Q28.86 18.15 29.65 18.15L29.65 18.15Q30.45 18.15 30.95 18.64Q31.46 19.12 31.46 19.95L31.46 19.95L31.46 20.37Q31.46 21.13 30.97 21.62Q30.48 22.12 29.66 22.12Q28.84 22.12 28.34 21.63Q27.84 21.14 27.84 20.34ZM28.84 19.93L28.84 20.37Q28.84 20.76 29.07 21.02Q29.30 21.27 29.66 21.27L29.66 21.27Q30.04 21.27 30.25 21.03Q30.47 20.79 30.47 20.35L30.47 20.35L30.47 19.91Q30.47 19.50 30.24 19.25Q30.01 19.01 29.65 19.01L29.65 19.01Q29.29 19.01 29.06 19.25Q28.84 19.50 28.84 19.93L28.84 19.93Z" fill="#FFFFFF"/><path class="svg__text" d="M57.25 17.80L57.25 17.80Q57.25 16.55 57.85 15.55Q58.46 14.56 59.52 14.00Q60.58 13.43 61.91 13.43L61.91 13.43Q63.24 13.43 64.31 14.00Q65.37 14.56 65.98 15.55Q66.58 16.55 66.58 17.80L66.58 17.80Q66.58 19.05 65.98 20.04Q65.37 21.04 64.31 21.60Q63.25 22.17 61.91 22.17L61.91 22.17Q60.58 22.17 59.52 21.60Q58.46 21.04 57.85 20.04Q57.25 19.05 57.25 17.80ZM59.65 17.80L59.65 17.80Q59.65 18.51 59.95 19.05Q60.25 19.60 60.77 19.90Q61.28 20.20 61.91 20.20L61.91 20.20Q62.55 20.20 63.07 19.90Q63.58 19.60 63.88 19.05Q64.18 18.51 64.18 17.80L64.18 17.80Q64.18 17.09 63.88 16.54Q63.58 16 63.07 15.70Q62.55 15.40 61.91 15.40L61.91 15.40Q61.28 15.40 60.76 15.70Q60.25 16 59.95 16.54Q59.65 17.09 59.65 17.80ZM73.69 22L71.31 22L71.31 13.60L75.16 13.60Q76.29 13.60 77.13 13.98Q77.97 14.35 78.43 15.06Q78.89 15.76 78.89 16.71L78.89 16.71Q78.89 17.66 78.43 18.35Q77.97 19.05 77.13 19.42Q76.29 19.80 75.16 19.80L75.16 19.80L73.69 19.80L73.69 22ZM73.69 15.47L73.69 17.93L75.01 17.93Q75.74 17.93 76.11 17.61Q76.49 17.29 76.49 16.71L76.49 16.71Q76.49 16.12 76.11 15.80Q75.74 15.47 75.01 15.47L75.01 15.47L73.69 15.47ZM85.43 15.48L82.85 15.48L82.85 13.60L90.37 13.60L90.37 15.48L87.81 15.48L87.81 22L85.43 22L85.43 15.48ZM97.12 22L94.74 22L94.74 13.60L97.12 13.60L97.12 22ZM104.49 22L102.30 22L102.30 13.60L104.25 13.60L107.21 18.45L110.09 13.60L112.04 13.60L112.06 22L109.88 22L109.86 17.55L107.70 21.17L106.64 21.17L104.49 17.67L104.49 22ZM119.61 22L117.23 22L117.23 13.60L119.61 13.60L119.61 22ZM131.89 22L124.36 22L124.36 20.51L128.60 15.48L124.47 15.48L124.47 13.60L131.71 13.60L131.71 15.09L127.47 20.11L131.89 20.11L131.89 22ZM143.15 22L136.41 22L136.41 13.60L143.00 13.60L143.00 15.44L138.77 15.44L138.77 16.85L142.50 16.85L142.50 18.63L138.77 18.63L138.77 20.17L143.15 20.17L143.15 22ZM151.93 22L147.96 22L147.96 13.60L151.93 13.60Q153.31 13.60 154.38 14.12Q155.45 14.63 156.04 15.58Q156.63 16.53 156.63 17.80L156.63 17.80Q156.63 19.07 156.04 20.02Q155.45 20.97 154.38 21.48Q153.31 22 151.93 22L151.93 22ZM150.34 15.50L150.34 20.10L151.84 20.10Q152.92 20.10 153.57 19.49Q154.22 18.88 154.22 17.80L154.22 17.80Q154.22 16.72 153.57 16.11Q152.92 15.50 151.84 15.50L151.84 15.50L150.34 15.50Z" fill="#FFFFFF" x="56.49"/></svg>