<svg xmlns="http://www.w3.org/2000/svg" width="191.2" height="35" viewBox="0 0 191.2 35"><rect class="svg__rect" x="0" y="0" width="118.74" height="35" fill="#000000"/><rect class="svg__rect" x="116.74" y="0" width="74.45999999999998" height="35" fill="#810793"/><path class="svg__text" d="M13.95 18.19L13.95 18.19L13.95 17.39Q13.95 16.19 14.38 15.27Q14.80 14.35 15.60 13.85Q16.40 13.35 17.45 13.35L17.45 13.35Q18.86 13.35 19.73 14.12Q20.59 14.89 20.73 16.29L20.73 16.29L19.25 16.29Q19.14 15.37 18.71 14.96Q18.28 14.55 17.45 14.55L17.45 14.55Q16.48 14.55 15.97 15.26Q15.45 15.96 15.44 17.33L15.44 17.33L15.44 18.09Q15.44 19.47 15.93 20.20Q16.43 20.92 17.38 20.92L17.38 20.92Q18.25 20.92 18.69 20.53Q19.13 20.14 19.25 19.22L19.25 19.22L20.73 19.22Q20.60 20.59 19.72 21.35Q18.84 22.12 17.38 22.12L17.38 22.12Q16.36 22.12 15.59 21.63Q14.81 21.15 14.39 20.26Q13.97 19.37 13.95 18.19ZM24.77 18.00L24.77 18.00L24.77 17.52Q24.77 16.28 25.21 15.32Q25.65 14.37 26.46 13.86Q27.27 13.35 28.31 13.35Q29.35 13.35 30.16 13.85Q30.96 14.35 31.40 15.29Q31.84 16.23 31.85 17.48L31.85 17.48L31.85 17.96Q31.85 19.21 31.41 20.16Q30.98 21.10 30.18 21.61Q29.37 22.12 28.32 22.12L28.32 22.12Q27.28 22.12 26.47 21.61Q25.66 21.10 25.22 20.17Q24.78 19.23 24.77 18.00ZM26.25 17.46L26.25 17.96Q26.25 19.36 26.80 20.13Q27.35 20.90 28.32 20.90L28.32 20.90Q29.31 20.90 29.84 20.15Q30.37 19.40 30.37 17.96L30.37 17.96L30.37 17.51Q30.37 16.09 29.83 15.34Q29.29 14.58 28.31 14.58L28.31 14.58Q27.35 14.58 26.81 15.33Q26.26 16.09 26.25 17.46L26.25 17.46ZM37.79 22L36.31 22L36.31 13.47L38.23 13.47L40.70 20.01L43.15 13.47L45.07 13.47L45.07 22L43.59 22L43.59 19.19L43.74 15.43L41.22 22L40.16 22L37.64 15.43L37.79 19.19L37.79 22ZM55.39 22L49.81 22L49.81 13.47L55.34 13.47L55.34 14.66L51.29 14.66L51.29 17.02L54.79 17.02L54.79 18.19L51.29 18.19L51.29 20.82L55.39 20.82L55.39 22ZM68.67 22L65.56 22L65.56 13.47L68.48 13.47Q69.93 13.47 70.68 14.05Q71.44 14.63 71.44 15.78L71.44 15.78Q71.44 16.36 71.12 16.83Q70.81 17.30 70.20 17.56L70.20 17.56Q70.89 17.75 71.27 18.26Q71.64 18.78 71.64 19.51L71.64 19.51Q71.64 20.71 70.87 21.36Q70.10 22 68.67 22L68.67 22ZM67.04 18.15L67.04 20.82L68.69 20.82Q69.38 20.82 69.78 20.47Q70.17 20.13 70.17 19.51L70.17 19.51Q70.17 18.18 68.81 18.15L68.81 18.15L67.04 18.15ZM67.04 14.66L67.04 17.06L68.49 17.06Q69.18 17.06 69.57 16.75Q69.96 16.43 69.96 15.86L69.96 15.86Q69.96 15.23 69.60 14.95Q69.24 14.66 68.48 14.66L68.48 14.66L67.04 14.66ZM76.89 22L75.35 22L78.58 13.47L79.91 13.47L83.14 22L81.59 22L80.89 20.01L77.59 20.01L76.89 22ZM79.24 15.28L78.00 18.82L80.47 18.82L79.24 15.28ZM86.82 18.19L86.82 18.19L86.82 17.39Q86.82 16.19 87.25 15.27Q87.68 14.35 88.48 13.85Q89.28 13.35 90.32 13.35L90.32 13.35Q91.74 13.35 92.60 14.12Q93.46 14.89 93.60 16.29L93.60 16.29L92.12 16.29Q92.02 15.37 91.59 14.96Q91.16 14.55 90.32 14.55L90.32 14.55Q89.36 14.55 88.84 15.26Q88.32 15.96 88.31 17.33L88.31 17.33L88.31 18.09Q88.31 19.47 88.80 20.20Q89.30 20.92 90.25 20.92L90.25 20.92Q91.13 20.92 91.57 20.53Q92.01 20.14 92.12 19.22L92.12 19.22L93.60 19.22Q93.47 20.59 92.59 21.35Q91.71 22.12 90.25 22.12L90.25 22.12Q89.23 22.12 88.46 21.63Q87.68 21.15 87.26 20.26Q86.84 19.37 86.82 18.19ZM99.39 22L97.91 22L97.91 13.47L99.39 13.47L99.39 17.47L100.22 16.46L102.71 13.47L104.50 13.47L101.33 17.25L104.69 22L102.93 22L100.36 18.31L99.39 19.34L99.39 22Z" fill="#FFFFFF"/><path class="svg__text" d="M133.31 22L130.93 22L130.93 13.60L133.31 13.60L133.31 16.76L136.55 16.76L136.55 13.60L138.92 13.60L138.92 22L136.55 22L136.55 18.72L133.31 18.72L133.31 22ZM143.65 17.80L143.65 17.80Q143.65 16.55 144.26 15.55Q144.86 14.56 145.92 14.00Q146.99 13.43 148.32 13.43L148.32 13.43Q149.65 13.43 150.71 14.00Q151.78 14.56 152.38 15.55Q152.99 16.55 152.99 17.80L152.99 17.80Q152.99 19.05 152.38 20.04Q151.78 21.04 150.72 21.60Q149.65 22.17 148.32 22.17L148.32 22.17Q146.99 22.17 145.92 21.60Q144.86 21.04 144.26 20.04Q143.65 19.05 143.65 17.80ZM146.05 17.80L146.05 17.80Q146.05 18.51 146.35 19.05Q146.65 19.60 147.17 19.90Q147.69 20.20 148.32 20.20L148.32 20.20Q148.96 20.20 149.47 19.90Q149.99 19.60 150.29 19.05Q150.59 18.51 150.59 17.80L150.59 17.80Q150.59 17.09 150.29 16.54Q149.99 16 149.47 15.70Q148.96 15.40 148.32 15.40L148.32 15.40Q147.68 15.40 147.17 15.70Q146.65 16 146.35 16.54Q146.05 17.09 146.05 17.80ZM159.91 22L157.72 22L157.72 13.60L159.67 13.60L162.63 18.45L165.51 13.60L167.46 13.60L167.48 22L165.30 22L165.28 17.55L163.12 21.17L162.06 21.17L159.91 17.67L159.91 22ZM179.39 22L172.65 22L172.65 13.60L179.24 13.60L179.24 15.44L175.00 15.44L175.00 16.85L178.73 16.85L178.73 18.63L175.00 18.63L175.00 20.17L179.39 20.17L179.39 22Z" fill="#FFFFFF" x="129.74"/></svg>