<svg xmlns="http://www.w3.org/2000/svg" width="186.26999999999998" height="35" viewBox="0 0 186.26999999999998 35"><rect class="svg__rect" x="0" y="0" width="97.35" height="35" fill="#C1D72F"/><rect class="svg__rect" x="95.35" y="0" width="90.91999999999999" height="35" fill="#5D9741"/><path class="svg__text" d="M19.80 22L14.22 22L14.22 13.47L19.75 13.47L19.75 14.66L15.70 14.66L15.70 17.02L19.20 17.02L19.20 18.19L15.70 18.19L15.70 20.82L19.80 20.82L19.80 22ZM25.47 22L23.99 22L23.99 13.47L25.47 13.47L29.29 19.54L29.29 13.47L30.76 13.47L30.76 22L29.28 22L25.47 15.95L25.47 22ZM35.23 18.19L35.23 18.19L35.23 17.39Q35.23 16.19 35.66 15.27Q36.08 14.35 36.88 13.85Q37.68 13.35 38.73 13.35L38.73 13.35Q40.14 13.35 41.01 14.12Q41.87 14.89 42.01 16.29L42.01 16.29L40.53 16.29Q40.43 15.37 40.00 14.96Q39.56 14.55 38.73 14.55L38.73 14.55Q37.77 14.55 37.25 15.26Q36.73 15.96 36.72 17.33L36.72 17.33L36.72 18.09Q36.72 19.47 37.21 20.20Q37.71 20.92 38.66 20.92L38.66 20.92Q39.54 20.92 39.98 20.53Q40.41 20.14 40.53 19.22L40.53 19.22L42.01 19.22Q41.88 20.59 41.00 21.35Q40.12 22.12 38.66 22.12L38.66 22.12Q37.64 22.12 36.87 21.63Q36.09 21.15 35.67 20.26Q35.25 19.37 35.23 18.19ZM47.80 22L46.32 22L46.32 13.47L49.32 13.47Q50.80 13.47 51.60 14.13Q52.40 14.79 52.40 16.05L52.40 16.05Q52.40 16.90 51.99 17.48Q51.58 18.06 50.84 18.37L50.84 18.37L52.75 21.92L52.75 22L51.17 22L49.46 18.71L47.80 18.71L47.80 22ZM47.80 14.66L47.80 17.52L49.33 17.52Q50.08 17.52 50.50 17.15Q50.92 16.77 50.92 16.11L50.92 16.11Q50.92 15.43 50.53 15.05Q50.14 14.68 49.37 14.66L49.37 14.66L47.80 14.66ZM58.84 18.86L55.97 13.47L57.62 13.47L59.58 17.51L61.54 13.47L63.18 13.47L60.32 18.86L60.32 22L58.84 22L58.84 18.86ZM68.58 22L67.10 22L67.10 13.47L70.36 13.47Q71.79 13.47 72.63 14.21Q73.47 14.96 73.47 16.18L73.47 16.18Q73.47 17.44 72.65 18.13Q71.83 18.83 70.34 18.83L70.34 18.83L68.58 18.83L68.58 22ZM68.58 14.66L68.58 17.64L70.36 17.64Q71.15 17.64 71.57 17.27Q71.98 16.90 71.98 16.19L71.98 16.19Q71.98 15.50 71.56 15.09Q71.14 14.68 70.40 14.66L70.40 14.66L68.58 14.66ZM79.44 14.66L76.80 14.66L76.80 13.47L83.57 13.47L83.57 14.66L80.91 14.66L80.91 22L79.44 22L79.44 14.66Z" fill="#FFFFFF"/><path class="svg__text" d="M110.96 22L108.53 22L112.24 13.60L114.58 13.60L118.30 22L115.83 22L115.17 20.37L111.62 20.37L110.96 22ZM113.39 15.93L112.31 18.61L114.47 18.61L113.39 15.93ZM129.20 22L122.45 22L122.45 13.60L129.04 13.60L129.04 15.44L124.81 15.44L124.81 16.85L128.54 16.85L128.54 18.63L124.81 18.63L124.81 20.17L129.20 20.17L129.20 22ZM133.41 21.24L133.41 21.24L134.19 19.49Q134.76 19.86 135.50 20.09Q136.24 20.32 136.97 20.32L136.97 20.32Q138.33 20.32 138.34 19.64L138.34 19.64Q138.34 19.28 137.95 19.11Q137.56 18.93 136.69 18.74L136.69 18.74Q135.74 18.53 135.11 18.30Q134.47 18.06 134.02 17.55Q133.56 17.03 133.56 16.16L133.56 16.16Q133.56 15.39 133.98 14.77Q134.40 14.15 135.23 13.79Q136.07 13.43 137.28 13.43L137.28 13.43Q138.10 13.43 138.91 13.62Q139.71 13.80 140.33 14.17L140.33 14.17L139.60 15.93Q138.40 15.28 137.26 15.28L137.26 15.28Q136.56 15.28 136.23 15.49Q135.91 15.70 135.91 16.04L135.91 16.04Q135.91 16.37 136.29 16.54Q136.68 16.71 137.53 16.89L137.53 16.89Q138.49 17.10 139.12 17.33Q139.75 17.56 140.21 18.07Q140.67 18.58 140.67 19.46L140.67 19.46Q140.67 20.21 140.26 20.83Q139.84 21.44 139.00 21.80Q138.16 22.17 136.95 22.17L136.95 22.17Q135.93 22.17 134.97 21.92Q134.01 21.67 133.41 21.24ZM146.11 16.17L144.34 15.19Q144.83 14.37 145.72 13.90Q146.61 13.43 147.82 13.43L147.82 13.43Q148.78 13.43 149.52 13.74Q150.25 14.05 150.67 14.64Q151.09 15.22 151.09 15.99L151.09 15.99Q151.09 16.67 150.79 17.28Q150.49 17.89 149.66 18.65L149.66 18.65L148.07 20.11L151.32 20.11L151.32 22L144.77 22L144.77 20.51L147.92 17.57Q148.37 17.14 148.53 16.83Q148.68 16.53 148.68 16.22L148.68 16.22Q148.68 15.81 148.41 15.58Q148.13 15.35 147.61 15.35L147.61 15.35Q147.14 15.35 146.75 15.56Q146.36 15.77 146.11 16.17L146.11 16.17ZM155.18 21.34L155.18 21.34L156.03 19.55Q156.54 19.88 157.14 20.07Q157.75 20.25 158.36 20.25L158.36 20.25Q158.97 20.25 159.33 20.01Q159.70 19.78 159.70 19.36L159.70 19.36Q159.70 18.94 159.34 18.72Q158.99 18.51 158.07 18.51L158.07 18.51L155.79 18.51L156.21 13.60L161.56 13.60L161.56 15.44L158.18 15.44L158.07 16.66L158.63 16.66Q160.40 16.66 161.24 17.38Q162.09 18.10 162.09 19.30L162.09 19.30Q162.09 20.08 161.69 20.73Q161.29 21.39 160.46 21.78Q159.64 22.17 158.43 22.17L158.43 22.17Q157.54 22.17 156.67 21.95Q155.80 21.74 155.18 21.34ZM166.26 18.03L166.26 18.03Q166.26 16.59 166.82 15.55Q167.38 14.51 168.38 13.97Q169.39 13.43 170.72 13.43L170.72 13.43Q171.44 13.43 172.09 13.59Q172.74 13.74 173.19 14.04L173.19 14.04L172.33 15.75Q171.72 15.31 170.79 15.31L170.79 15.31Q169.87 15.31 169.31 15.82Q168.75 16.32 168.66 17.27L168.66 17.27Q169.38 16.65 170.56 16.65L170.56 16.65Q171.35 16.65 172.01 16.98Q172.67 17.31 173.06 17.91Q173.45 18.52 173.45 19.30L173.45 19.30Q173.45 20.15 173.01 20.80Q172.57 21.46 171.82 21.82Q171.07 22.17 170.15 22.17L170.15 22.17Q168.35 22.17 167.31 21.10Q166.26 20.03 166.26 18.03ZM168.83 19.42L168.83 19.42Q168.83 19.89 169.15 20.18Q169.46 20.48 170.01 20.48L170.01 20.48Q170.51 20.48 170.83 20.19Q171.14 19.90 171.14 19.41L171.14 19.41Q171.14 18.93 170.83 18.64Q170.51 18.35 169.99 18.35L169.99 18.35Q169.48 18.35 169.15 18.65Q168.83 18.94 168.83 19.42Z" fill="#FFFFFF" x="108.35"/></svg>