<svg xmlns="http://www.w3.org/2000/svg" width="153.71999999999997" height="35" viewBox="0 0 153.71999999999997 35"><rect class="svg__rect" x="0" y="0" width="97.35" height="35" fill="#C1D72F"/><rect class="svg__rect" x="95.35" y="0" width="58.36999999999999" height="35" fill="#5D9741"/><path class="svg__text" d="M19.80 22L14.22 22L14.22 13.47L19.75 13.47L19.75 14.66L15.70 14.66L15.70 17.02L19.20 17.02L19.20 18.19L15.70 18.19L15.70 20.82L19.80 20.82L19.80 22ZM25.47 22L23.99 22L23.99 13.47L25.47 13.47L29.29 19.54L29.29 13.47L30.76 13.47L30.76 22L29.28 22L25.47 15.95L25.47 22ZM35.23 18.19L35.23 18.19L35.23 17.39Q35.23 16.19 35.66 15.27Q36.08 14.35 36.88 13.85Q37.68 13.35 38.73 13.35L38.73 13.35Q40.14 13.35 41.01 14.12Q41.87 14.89 42.01 16.29L42.01 16.29L40.53 16.29Q40.43 15.37 40.00 14.96Q39.56 14.55 38.73 14.55L38.73 14.55Q37.77 14.55 37.25 15.26Q36.73 15.96 36.72 17.33L36.72 17.33L36.72 18.09Q36.72 19.47 37.21 20.20Q37.71 20.92 38.66 20.92L38.66 20.92Q39.54 20.92 39.98 20.53Q40.41 20.14 40.53 19.22L40.53 19.22L42.01 19.22Q41.88 20.59 41.00 21.35Q40.12 22.12 38.66 22.12L38.66 22.12Q37.64 22.12 36.87 21.63Q36.09 21.15 35.67 20.26Q35.25 19.37 35.23 18.19ZM47.80 22L46.32 22L46.32 13.47L49.32 13.47Q50.80 13.47 51.60 14.13Q52.40 14.79 52.40 16.05L52.40 16.05Q52.40 16.90 51.99 17.48Q51.58 18.06 50.84 18.37L50.84 18.37L52.75 21.92L52.75 22L51.17 22L49.46 18.71L47.80 18.71L47.80 22ZM47.80 14.66L47.80 17.52L49.33 17.52Q50.08 17.52 50.50 17.15Q50.92 16.77 50.92 16.11L50.92 16.11Q50.92 15.43 50.53 15.05Q50.14 14.68 49.37 14.66L49.37 14.66L47.80 14.66ZM58.84 18.86L55.97 13.47L57.62 13.47L59.58 17.51L61.54 13.47L63.18 13.47L60.32 18.86L60.32 22L58.84 22L58.84 18.86ZM68.58 22L67.10 22L67.10 13.47L70.36 13.47Q71.79 13.47 72.63 14.21Q73.47 14.96 73.47 16.18L73.47 16.18Q73.47 17.44 72.65 18.13Q71.83 18.83 70.34 18.83L70.34 18.83L68.58 18.83L68.58 22ZM68.58 14.66L68.58 17.64L70.36 17.64Q71.15 17.64 71.57 17.27Q71.98 16.90 71.98 16.19L71.98 16.19Q71.98 15.50 71.56 15.09Q71.14 14.68 70.40 14.66L70.40 14.66L68.58 14.66ZM79.44 14.66L76.80 14.66L76.80 13.47L83.57 13.47L83.57 14.66L80.91 14.66L80.91 22L79.44 22L79.44 14.66Z" fill="#FFFFFF"/><path class="svg__text" d="M111.92 22L109.54 22L109.54 13.60L113.38 13.60Q114.52 13.60 115.36 13.98Q116.20 14.35 116.66 15.06Q117.11 15.76 117.11 16.71L117.11 16.71Q117.11 17.62 116.69 18.30Q116.26 18.98 115.47 19.36L115.47 19.36L117.28 22L114.74 22L113.21 19.77L111.92 19.77L111.92 22ZM111.92 15.47L111.92 17.93L113.24 17.93Q113.97 17.93 114.34 17.61Q114.71 17.29 114.71 16.71L114.71 16.71Q114.71 16.12 114.34 15.79Q113.97 15.47 113.24 15.47L113.24 15.47L111.92 15.47ZM121.32 21.24L121.32 21.24L122.09 19.49Q122.66 19.86 123.40 20.09Q124.15 20.32 124.87 20.32L124.87 20.32Q126.23 20.32 126.24 19.64L126.24 19.64Q126.24 19.28 125.85 19.11Q125.46 18.93 124.59 18.74L124.59 18.74Q123.64 18.53 123.01 18.30Q122.37 18.06 121.92 17.55Q121.46 17.03 121.46 16.16L121.46 16.16Q121.46 15.39 121.88 14.77Q122.30 14.15 123.13 13.79Q123.97 13.43 125.18 13.43L125.18 13.43Q126.00 13.43 126.81 13.62Q127.61 13.80 128.23 14.17L128.23 14.17L127.50 15.93Q126.30 15.28 125.16 15.28L125.16 15.28Q124.46 15.28 124.13 15.49Q123.81 15.70 123.81 16.04L123.81 16.04Q123.81 16.37 124.20 16.54Q124.58 16.71 125.43 16.89L125.43 16.89Q126.39 17.10 127.02 17.33Q127.65 17.56 128.11 18.07Q128.57 18.58 128.57 19.46L128.57 19.46Q128.57 20.21 128.16 20.83Q127.74 21.44 126.90 21.80Q126.06 22.17 124.85 22.17L124.85 22.17Q123.83 22.17 122.87 21.92Q121.91 21.67 121.32 21.24ZM134.57 22L132.14 22L135.85 13.60L138.20 13.60L141.91 22L139.44 22L138.78 20.37L135.23 20.37L134.57 22ZM137.01 15.93L135.92 18.61L138.08 18.61L137.01 15.93Z" fill="#FFFFFF" x="108.35"/></svg>