<svg xmlns="http://www.w3.org/2000/svg" width="458.68" height="35" viewBox="0 0 458.68 35"><rect class="svg__rect" x="0" y="0" width="262.28999999999996" height="35" fill="#C1D72F"/><rect class="svg__rect" x="260.28999999999996" y="0" width="198.39000000000004" height="35" fill="#419B5A"/><path class="svg__text" d="M15.78 22L14.31 22L14.31 13.47L15.78 13.47L15.78 22ZM22.07 22L20.59 22L20.59 13.47L26.01 13.47L26.01 14.66L22.07 14.66L22.07 17.20L25.51 17.20L25.51 18.38L22.07 18.38L22.07 22ZM38.19 18.86L35.32 13.47L36.97 13.47L38.93 17.51L40.89 13.47L42.54 13.47L39.68 18.86L39.68 22L38.19 22L38.19 18.86ZM46.18 18.00L46.18 18.00L46.18 17.52Q46.18 16.28 46.62 15.32Q47.06 14.37 47.87 13.86Q48.68 13.35 49.72 13.35Q50.76 13.35 51.57 13.85Q52.37 14.35 52.81 15.29Q53.25 16.23 53.26 17.48L53.26 17.48L53.26 17.96Q53.26 19.21 52.82 20.16Q52.39 21.10 51.59 21.61Q50.78 22.12 49.73 22.12L49.73 22.12Q48.69 22.12 47.88 21.61Q47.07 21.10 46.63 20.17Q46.19 19.23 46.18 18.00ZM47.66 17.46L47.66 17.96Q47.66 19.36 48.21 20.13Q48.76 20.90 49.73 20.90L49.73 20.90Q50.72 20.90 51.25 20.15Q51.78 19.40 51.78 17.96L51.78 17.96L51.78 17.51Q51.78 16.09 51.24 15.34Q50.70 14.58 49.72 14.58L49.72 14.58Q48.76 14.58 48.22 15.33Q47.67 16.09 47.66 17.46L47.66 17.46ZM57.59 19.16L57.59 19.16L57.59 13.47L59.06 13.47L59.06 19.18Q59.06 20.03 59.50 20.48Q59.93 20.93 60.78 20.93L60.78 20.93Q62.49 20.93 62.49 19.13L62.49 19.13L62.49 13.47L63.96 13.47L63.96 19.17Q63.96 20.53 63.09 21.32Q62.22 22.12 60.78 22.12L60.78 22.12Q59.31 22.12 58.45 21.33Q57.59 20.55 57.59 19.16ZM77.62 22L74.51 22L74.51 13.47L77.43 13.47Q78.88 13.47 79.64 14.05Q80.39 14.63 80.39 15.78L80.39 15.78Q80.39 16.36 80.08 16.83Q79.76 17.30 79.15 17.56L79.15 17.56Q79.84 17.75 80.22 18.26Q80.60 18.78 80.60 19.51L80.60 19.51Q80.60 20.71 79.83 21.36Q79.06 22 77.62 22L77.62 22ZM75.99 18.15L75.99 20.82L77.64 20.82Q78.34 20.82 78.73 20.47Q79.12 20.13 79.12 19.51L79.12 19.51Q79.12 18.18 77.76 18.15L77.76 18.15L75.99 18.15ZM75.99 14.66L75.99 17.06L77.45 17.06Q78.14 17.06 78.53 16.75Q78.92 16.43 78.92 15.86L78.92 15.86Q78.92 15.23 78.56 14.95Q78.20 14.66 77.43 14.66L77.43 14.66L75.99 14.66ZM90.65 22L85.07 22L85.07 13.47L90.61 13.47L90.61 14.66L86.55 14.66L86.55 17.02L90.06 17.02L90.06 18.19L86.55 18.19L86.55 20.82L90.65 20.82L90.65 22ZM100.20 22L94.84 22L94.84 13.47L96.32 13.47L96.32 20.82L100.20 20.82L100.20 22ZM105.89 22L104.41 22L104.41 13.47L105.89 13.47L105.89 22ZM116.28 22L110.70 22L110.70 13.47L116.23 13.47L116.23 14.66L112.18 14.66L112.18 17.02L115.68 17.02L115.68 18.19L112.18 18.19L112.18 20.82L116.28 20.82L116.28 22ZM122.77 22L119.71 13.47L121.33 13.47L123.48 20.14L125.64 13.47L127.27 13.47L124.20 22L122.77 22ZM136.80 22L131.22 22L131.22 13.47L136.76 13.47L136.76 14.66L132.71 14.66L132.71 17.02L136.21 17.02L136.21 18.19L132.71 18.19L132.71 20.82L136.80 20.82L136.80 22ZM148.54 22L147.06 22L147.06 13.47L148.54 13.47L148.54 22ZM154.83 22L153.35 22L153.35 13.47L154.83 13.47L158.64 19.54L158.64 13.47L160.12 13.47L160.12 22L158.63 22L154.83 15.95L154.83 22ZM172.87 18.86L170.01 13.47L171.65 13.47L173.62 17.51L175.58 13.47L177.22 13.47L174.36 18.86L174.36 22L172.87 22L172.87 18.86ZM180.86 18.00L180.86 18.00L180.86 17.52Q180.86 16.28 181.31 15.32Q181.75 14.37 182.55 13.86Q183.36 13.35 184.40 13.35Q185.45 13.35 186.25 13.85Q187.06 14.35 187.50 15.29Q187.94 16.23 187.94 17.48L187.94 17.48L187.94 17.96Q187.94 19.21 187.51 20.16Q187.07 21.10 186.27 21.61Q185.46 22.12 184.41 22.12L184.41 22.12Q183.38 22.12 182.57 21.61Q181.75 21.10 181.31 20.17Q180.87 19.23 180.86 18.00ZM182.35 17.46L182.35 17.96Q182.35 19.36 182.89 20.13Q183.44 20.90 184.41 20.90L184.41 20.90Q185.40 20.90 185.93 20.15Q186.46 19.40 186.46 17.96L186.46 17.96L186.46 17.51Q186.46 16.09 185.92 15.34Q185.39 14.58 184.40 14.58L184.40 14.58Q183.44 14.58 182.90 15.33Q182.36 16.09 182.35 17.46L182.35 17.46ZM192.27 19.16L192.27 19.16L192.27 13.47L193.75 13.47L193.75 19.18Q193.75 20.03 194.18 20.48Q194.62 20.93 195.46 20.93L195.46 20.93Q197.17 20.93 197.17 19.13L197.17 19.13L197.17 13.47L198.65 13.47L198.65 19.17Q198.65 20.53 197.78 21.32Q196.91 22.12 195.46 22.12L195.46 22.12Q193.99 22.12 193.13 21.33Q192.27 20.55 192.27 19.16ZM204.70 22L203.22 22L203.22 13.47L206.22 13.47Q207.69 13.47 208.50 14.13Q209.30 14.79 209.30 16.05L209.30 16.05Q209.30 16.90 208.89 17.48Q208.47 18.06 207.73 18.37L207.73 18.37L209.65 21.92L209.65 22L208.06 22L206.35 18.71L204.70 18.71L204.70 22ZM204.70 14.66L204.70 17.52L206.22 17.52Q206.97 17.52 207.39 17.15Q207.82 16.77 207.82 16.11L207.82 16.11Q207.82 15.43 207.43 15.05Q207.04 14.68 206.26 14.66L206.26 14.66L204.70 14.66ZM213.26 19.42L213.26 19.42L214.74 19.42Q214.74 20.15 215.22 20.55Q215.70 20.95 216.60 20.95L216.60 20.95Q217.37 20.95 217.76 20.63Q218.15 20.32 218.15 19.80L218.15 19.80Q218.15 19.24 217.76 18.94Q217.36 18.63 216.33 18.32Q215.30 18.01 214.69 17.63L214.69 17.63Q213.52 16.90 213.52 15.72L213.52 15.72Q213.52 14.69 214.36 14.02Q215.21 13.35 216.55 13.35L216.55 13.35Q217.44 13.35 218.14 13.68Q218.83 14.01 219.23 14.61Q219.63 15.22 219.63 15.96L219.63 15.96L218.15 15.96Q218.15 15.29 217.73 14.91Q217.31 14.54 216.54 14.54L216.54 14.54Q215.81 14.54 215.41 14.85Q215.01 15.16 215.01 15.71L215.01 15.71Q215.01 16.18 215.44 16.50Q215.87 16.81 216.87 17.10Q217.87 17.40 218.47 17.78Q219.07 18.16 219.35 18.65Q219.64 19.13 219.64 19.79L219.64 19.79Q219.64 20.86 218.82 21.49Q218.00 22.12 216.60 22.12L216.60 22.12Q215.67 22.12 214.90 21.77Q214.12 21.43 213.69 20.83Q213.26 20.22 213.26 19.42ZM229.50 22L223.92 22L223.92 13.47L229.46 13.47L229.46 14.66L225.41 14.66L225.41 17.02L228.91 17.02L228.91 18.19L225.41 18.19L225.41 20.82L229.50 20.82L229.50 22ZM239.05 22L233.70 22L233.70 13.47L235.18 13.47L235.18 20.82L239.05 20.82L239.05 22ZM244.66 22L243.18 22L243.18 13.47L248.60 13.47L248.60 14.66L244.66 14.66L244.66 17.20L248.09 17.20L248.09 18.38L244.66 18.38L244.66 22Z" fill="#FFFFFF"/><path class="svg__text" d="M276.60 18.95L273.40 13.60L275.91 13.60L277.90 16.94L279.89 13.60L282.19 13.60L278.98 18.99L278.98 22L276.60 22L276.60 18.95ZM285.85 17.80L285.85 17.80Q285.85 16.55 286.45 15.55Q287.06 14.56 288.12 14.00Q289.18 13.43 290.51 13.43L290.51 13.43Q291.85 13.43 292.91 14.00Q293.97 14.56 294.58 15.55Q295.18 16.55 295.18 17.80L295.18 17.80Q295.18 19.05 294.58 20.04Q293.97 21.04 292.91 21.60Q291.85 22.17 290.51 22.17L290.51 22.17Q289.18 22.17 288.12 21.60Q287.06 21.04 286.45 20.04Q285.85 19.05 285.85 17.80ZM288.25 17.80L288.25 17.80Q288.25 18.51 288.55 19.05Q288.85 19.60 289.37 19.90Q289.88 20.20 290.51 20.20L290.51 20.20Q291.15 20.20 291.67 19.90Q292.18 19.60 292.48 19.05Q292.78 18.51 292.78 17.80L292.78 17.80Q292.78 17.09 292.48 16.54Q292.18 16 291.67 15.70Q291.15 15.40 290.51 15.40L290.51 15.40Q289.88 15.40 289.36 15.70Q288.85 16 288.55 16.54Q288.25 17.09 288.25 17.80ZM299.84 18.26L299.84 18.26L299.84 13.60L302.22 13.60L302.22 18.19Q302.22 20.20 303.82 20.20L303.82 20.20Q305.40 20.20 305.40 18.19L305.40 18.19L305.40 13.60L307.74 13.60L307.74 18.26Q307.74 20.13 306.70 21.15Q305.66 22.17 303.79 22.17L303.79 22.17Q301.92 22.17 300.88 21.15Q299.84 20.13 299.84 18.26ZM319.37 17.80L319.37 17.80Q319.37 16.54 319.97 15.54Q320.57 14.55 321.62 13.99Q322.67 13.43 323.99 13.43L323.99 13.43Q325.14 13.43 326.07 13.84Q326.99 14.25 327.60 15.02L327.60 15.02L326.09 16.39Q325.28 15.40 324.11 15.40L324.11 15.40Q323.43 15.40 322.89 15.70Q322.36 16 322.06 16.54Q321.77 17.09 321.77 17.80L321.77 17.80Q321.77 18.51 322.06 19.05Q322.36 19.60 322.89 19.90Q323.43 20.20 324.11 20.20L324.11 20.20Q325.28 20.20 326.09 19.22L326.09 19.22L327.60 20.58Q327.00 21.35 326.07 21.76Q325.14 22.17 323.99 22.17L323.99 22.17Q322.67 22.17 321.62 21.61Q320.57 21.05 319.97 20.05Q319.37 19.06 319.37 17.80ZM333.56 22L331.13 22L334.84 13.60L337.18 13.60L340.90 22L338.43 22L337.77 20.37L334.22 20.37L333.56 22ZM336.00 15.93L334.91 18.61L337.07 18.61L336.00 15.93ZM347.39 22L345.05 22L345.05 13.60L347.01 13.60L350.72 18.07L350.72 13.60L353.05 13.60L353.05 22L351.10 22L347.39 17.52L347.39 22ZM364.60 21.24L364.60 21.24L365.37 19.49Q365.94 19.86 366.68 20.09Q367.43 20.32 368.15 20.32L368.15 20.32Q369.51 20.32 369.52 19.64L369.52 19.64Q369.52 19.28 369.13 19.11Q368.74 18.93 367.87 18.74L367.87 18.74Q366.92 18.53 366.29 18.30Q365.65 18.06 365.20 17.55Q364.74 17.03 364.74 16.16L364.74 16.16Q364.74 15.39 365.16 14.77Q365.58 14.15 366.41 13.79Q367.25 13.43 368.46 13.43L368.46 13.43Q369.28 13.43 370.09 13.62Q370.89 13.80 371.51 14.17L371.51 14.17L370.78 15.93Q369.58 15.28 368.44 15.28L368.44 15.28Q367.74 15.28 367.41 15.49Q367.09 15.70 367.09 16.04L367.09 16.04Q367.09 16.37 367.47 16.54Q367.86 16.71 368.71 16.89L368.71 16.89Q369.67 17.10 370.30 17.33Q370.93 17.56 371.39 18.07Q371.85 18.58 371.85 19.46L371.85 19.46Q371.85 20.21 371.44 20.83Q371.02 21.44 370.18 21.80Q369.34 22.17 368.13 22.17L368.13 22.17Q367.11 22.17 366.15 21.92Q365.19 21.67 364.60 21.24ZM376.36 18.26L376.36 18.26L376.36 13.60L378.74 13.60L378.74 18.19Q378.74 20.20 380.33 20.20L380.33 20.20Q381.92 20.20 381.92 18.19L381.92 18.19L381.92 13.60L384.26 13.60L384.26 18.26Q384.26 20.13 383.22 21.15Q382.18 22.17 380.31 22.17L380.31 22.17Q378.43 22.17 377.40 21.15Q376.36 20.13 376.36 18.26ZM388.92 17.80L388.92 17.80Q388.92 16.54 389.51 15.54Q390.11 14.55 391.16 13.99Q392.22 13.43 393.53 13.43L393.53 13.43Q394.69 13.43 395.61 13.84Q396.53 14.25 397.15 15.02L397.15 15.02L395.64 16.39Q394.82 15.40 393.66 15.40L393.66 15.40Q392.97 15.40 392.44 15.70Q391.91 16 391.61 16.54Q391.31 17.09 391.31 17.80L391.31 17.80Q391.31 18.51 391.61 19.05Q391.91 19.60 392.44 19.90Q392.97 20.20 393.66 20.20L393.66 20.20Q394.82 20.20 395.64 19.22L395.64 19.22L397.15 20.58Q396.54 21.35 395.61 21.76Q394.69 22.17 393.53 22.17L393.53 22.17Q392.22 22.17 391.16 21.61Q390.11 21.05 389.51 20.05Q388.92 19.06 388.92 17.80ZM401.26 17.80L401.26 17.80Q401.26 16.54 401.85 15.54Q402.45 14.55 403.50 13.99Q404.56 13.43 405.87 13.43L405.87 13.43Q407.03 13.43 407.95 13.84Q408.87 14.25 409.49 15.02L409.49 15.02L407.98 16.39Q407.16 15.40 406.00 15.40L406.00 15.40Q405.31 15.40 404.78 15.70Q404.25 16 403.95 16.54Q403.65 17.09 403.65 17.80L403.65 17.80Q403.65 18.51 403.95 19.05Q404.25 19.60 404.78 19.90Q405.31 20.20 406.00 20.20L406.00 20.20Q407.16 20.20 407.98 19.22L407.98 19.22L409.49 20.58Q408.88 21.35 407.95 21.76Q407.03 22.17 405.87 22.17L405.87 22.17Q404.56 22.17 403.50 21.61Q402.45 21.05 401.85 20.05Q401.26 19.06 401.26 17.80ZM420.77 22L414.02 22L414.02 13.60L420.62 13.60L420.62 15.44L416.38 15.44L416.38 16.85L420.11 16.85L420.11 18.63L416.38 18.63L416.38 20.17L420.77 20.17L420.77 22ZM432.32 22L425.57 22L425.57 13.60L432.17 13.60L432.17 15.44L427.93 15.44L427.93 16.85L431.66 16.85L431.66 18.63L427.93 18.63L427.93 20.17L432.32 20.17L432.32 22ZM441.10 22L437.12 22L437.12 13.60L441.10 13.60Q442.48 13.60 443.54 14.12Q444.61 14.63 445.20 15.58Q445.79 16.53 445.79 17.80L445.79 17.80Q445.79 19.07 445.20 20.02Q444.61 20.97 443.54 21.48Q442.48 22 441.10 22L441.10 22ZM439.50 15.50L439.50 20.10L441.00 20.10Q442.08 20.10 442.73 19.49Q443.39 18.88 443.39 17.80L443.39 17.80Q443.39 16.72 442.73 16.11Q442.08 15.50 441.00 15.50L441.00 15.50L439.50 15.50Z" fill="#FFFFFF" x="273.28999999999996"/></svg>