<svg xmlns="http://www.w3.org/2000/svg" width="184.17000000000002" height="35" viewBox="0 0 184.17000000000002 35"><rect class="svg__rect" x="0" y="0" width="115.31" height="35" fill="#EF4041"/><rect class="svg__rect" x="113.31" y="0" width="70.86000000000001" height="35" fill="#C1282D"/><path class="svg__text" d="M15.69 22L14.22 22L14.22 13.47L16.14 13.47L18.60 20.01L21.06 13.47L22.97 13.47L22.97 22L21.49 22L21.49 19.19L21.64 15.43L19.12 22L18.06 22L15.55 15.43L15.69 19.19L15.69 22ZM28.49 22L26.95 22L30.17 13.47L31.50 13.47L34.73 22L33.18 22L32.49 20.01L29.18 20.01L28.49 22ZM30.83 15.28L29.60 18.82L32.07 18.82L30.83 15.28ZM41.14 22L38.69 22L38.69 13.47L41.21 13.47Q42.34 13.47 43.21 13.97Q44.09 14.48 44.57 15.40Q45.05 16.33 45.05 17.52L45.05 17.52L45.05 17.95Q45.05 19.16 44.57 20.08Q44.08 21.00 43.19 21.50Q42.30 22 41.14 22L41.14 22ZM40.17 14.66L40.17 20.82L41.14 20.82Q42.30 20.82 42.93 20.09Q43.55 19.36 43.56 17.99L43.56 17.99L43.56 17.52Q43.56 16.13 42.96 15.40Q42.35 14.66 41.21 14.66L41.21 14.66L40.17 14.66ZM55.09 22L49.51 22L49.51 13.47L55.05 13.47L55.05 14.66L51.00 14.66L51.00 17.02L54.50 17.02L54.50 18.19L51.00 18.19L51.00 20.82L55.09 20.82L55.09 22ZM66.65 22L64.68 13.47L66.15 13.47L67.47 19.88L69.10 13.47L70.34 13.47L71.96 19.89L73.27 13.47L74.74 13.47L72.77 22L71.35 22L69.73 15.77L68.07 22L66.65 22ZM80.38 22L78.90 22L78.90 13.47L80.38 13.47L80.38 22ZM86.87 14.66L84.23 14.66L84.23 13.47L91.00 13.47L91.00 14.66L88.34 14.66L88.34 22L86.87 22L86.87 14.66ZM96.24 22L94.75 22L94.75 13.47L96.24 13.47L96.24 17.02L100.05 17.02L100.05 13.47L101.53 13.47L101.53 22L100.05 22L100.05 18.21L96.24 18.21L96.24 22Z" fill="#FFFFFF"/><path class="svg__text" d="M132.04 22L127.50 22L127.50 13.60L131.80 13.60Q133.40 13.60 134.24 14.19Q135.09 14.79 135.09 15.79L135.09 15.79Q135.09 16.39 134.79 16.87Q134.49 17.34 133.95 17.62L133.95 17.62Q134.68 17.87 135.08 18.41Q135.49 18.94 135.49 19.70L135.49 19.70Q135.49 20.80 134.60 21.40Q133.71 22 132.04 22L132.04 22ZM129.85 18.58L129.85 20.28L131.85 20.28Q133.09 20.28 133.09 19.43L133.09 19.43Q133.09 18.58 131.85 18.58L131.85 18.58L129.85 18.58ZM129.85 15.31L129.85 16.94L131.48 16.94Q132.68 16.94 132.68 16.12L132.68 16.12Q132.68 15.31 131.48 15.31L131.48 15.31L129.85 15.31ZM141.62 22L139.20 22L142.91 13.60L145.25 13.60L148.97 22L146.50 22L145.84 20.37L142.29 20.37L141.62 22ZM144.06 15.93L142.98 18.61L145.14 18.61L144.06 15.93ZM152.53 21.24L152.53 21.24L153.31 19.49Q153.88 19.86 154.62 20.09Q155.37 20.32 156.09 20.32L156.09 20.32Q157.45 20.32 157.46 19.64L157.46 19.64Q157.46 19.28 157.07 19.11Q156.68 18.93 155.81 18.74L155.81 18.74Q154.86 18.53 154.23 18.30Q153.59 18.06 153.14 17.55Q152.68 17.03 152.68 16.16L152.68 16.16Q152.68 15.39 153.10 14.77Q153.52 14.15 154.35 13.79Q155.19 13.43 156.40 13.43L156.40 13.43Q157.22 13.43 158.03 13.62Q158.83 13.80 159.45 14.17L159.45 14.17L158.72 15.93Q157.52 15.28 156.38 15.28L156.38 15.28Q155.68 15.28 155.35 15.49Q155.03 15.70 155.03 16.04L155.03 16.04Q155.03 16.37 155.41 16.54Q155.80 16.71 156.65 16.89L156.65 16.89Q157.61 17.10 158.24 17.33Q158.87 17.56 159.33 18.07Q159.79 18.58 159.79 19.46L159.79 19.46Q159.79 20.21 159.38 20.83Q158.96 21.44 158.12 21.80Q157.28 22.17 156.07 22.17L156.07 22.17Q155.05 22.17 154.09 21.92Q153.13 21.67 152.53 21.24ZM166.75 22L164.37 22L164.37 13.60L166.75 13.60L166.75 16.76L169.99 16.76L169.99 13.60L172.36 13.60L172.36 22L169.99 22L169.99 18.72L166.75 18.72L166.75 22Z" fill="#FFFFFF" x="126.31"/></svg>