<svg xmlns="http://www.w3.org/2000/svg" width="203.26999999999998" height="35" viewBox="0 0 203.26999999999998 35"><rect class="svg__rect" x="0" y="0" width="146.42" height="35" fill="#31C4F3"/><rect class="svg__rect" x="144.42" y="0" width="58.849999999999994" height="35" fill="#389AD5"/><path class="svg__text" d="M15.69 22L14.22 22L14.22 13.47L16.14 13.47L18.60 20.01L21.06 13.47L22.97 13.47L22.97 22L21.49 22L21.49 19.19L21.64 15.43L19.12 22L18.06 22L15.55 15.43L15.69 19.19L15.69 22ZM28.49 22L26.95 22L30.17 13.47L31.50 13.47L34.73 22L33.18 22L32.49 20.01L29.18 20.01L28.49 22ZM30.83 15.28L29.60 18.82L32.07 18.82L30.83 15.28ZM40.17 22L38.69 22L38.69 13.47L40.17 13.47L40.17 17.47L40.99 16.46L43.48 13.47L45.28 13.47L42.11 17.25L45.46 22L43.70 22L41.14 18.31L40.17 19.34L40.17 22ZM54.82 22L49.24 22L49.24 13.47L54.78 13.47L54.78 14.66L50.72 14.66L50.72 17.02L54.23 17.02L54.23 18.19L50.72 18.19L50.72 20.82L54.82 20.82L54.82 22ZM58.58 19.42L58.58 19.42L60.06 19.42Q60.06 20.15 60.54 20.55Q61.02 20.95 61.92 20.95L61.92 20.95Q62.69 20.95 63.08 20.63Q63.47 20.32 63.47 19.80L63.47 19.80Q63.47 19.24 63.08 18.94Q62.68 18.63 61.65 18.32Q60.62 18.01 60.01 17.63L60.01 17.63Q58.84 16.90 58.84 15.72L58.84 15.72Q58.84 14.69 59.68 14.02Q60.52 13.35 61.87 13.35L61.87 13.35Q62.76 13.35 63.45 13.68Q64.15 14.01 64.55 14.61Q64.95 15.22 64.95 15.96L64.95 15.96L63.47 15.96Q63.47 15.29 63.05 14.91Q62.63 14.54 61.85 14.54L61.85 14.54Q61.13 14.54 60.73 14.85Q60.32 15.16 60.32 15.71L60.32 15.71Q60.32 16.18 60.76 16.50Q61.19 16.81 62.19 17.10Q63.18 17.40 63.79 17.78Q64.39 18.16 64.67 18.65Q64.95 19.13 64.95 19.79L64.95 19.79Q64.95 20.86 64.14 21.49Q63.32 22.12 61.92 22.12L61.92 22.12Q60.99 22.12 60.22 21.77Q59.44 21.43 59.01 20.83Q58.58 20.22 58.58 19.42ZM76.70 22L75.22 22L75.22 13.47L78.48 13.47Q79.91 13.47 80.75 14.21Q81.59 14.96 81.59 16.18L81.59 16.18Q81.59 17.44 80.77 18.13Q79.95 18.83 78.47 18.83L78.47 18.83L76.70 18.83L76.70 22ZM76.70 14.66L76.70 17.64L78.48 17.64Q79.27 17.64 79.69 17.27Q80.11 16.90 80.11 16.19L80.11 16.19Q80.11 15.50 79.68 15.09Q79.26 14.68 78.52 14.66L78.52 14.66L76.70 14.66ZM91.46 22L85.88 22L85.88 13.47L91.41 13.47L91.41 14.66L87.36 14.66L87.36 17.02L90.86 17.02L90.86 18.19L87.36 18.19L87.36 20.82L91.46 20.82L91.46 22ZM95.38 18.00L95.38 18.00L95.38 17.52Q95.38 16.28 95.82 15.32Q96.27 14.37 97.07 13.86Q97.88 13.35 98.92 13.35Q99.96 13.35 100.77 13.85Q101.57 14.35 102.01 15.29Q102.45 16.23 102.46 17.48L102.46 17.48L102.46 17.96Q102.46 19.21 102.03 20.16Q101.59 21.10 100.79 21.61Q99.98 22.12 98.93 22.12L98.93 22.12Q97.89 22.12 97.08 21.61Q96.27 21.10 95.83 20.17Q95.39 19.23 95.38 18.00ZM96.86 17.46L96.86 17.96Q96.86 19.36 97.41 20.13Q97.96 20.90 98.93 20.90L98.93 20.90Q99.92 20.90 100.45 20.15Q100.98 19.40 100.98 17.96L100.98 17.96L100.98 17.51Q100.98 16.09 100.44 15.34Q99.90 14.58 98.92 14.58L98.92 14.58Q97.96 14.58 97.42 15.33Q96.88 16.09 96.86 17.46L96.86 17.46ZM108.41 22L106.92 22L106.92 13.47L110.19 13.47Q111.62 13.47 112.46 14.21Q113.30 14.96 113.30 16.18L113.30 16.18Q113.30 17.44 112.48 18.13Q111.65 18.83 110.17 18.83L110.17 18.83L108.41 18.83L108.41 22ZM108.41 14.66L108.41 17.64L110.19 17.64Q110.98 17.64 111.39 17.27Q111.81 16.90 111.81 16.19L111.81 16.19Q111.81 15.50 111.39 15.09Q110.97 14.68 110.23 14.66L110.23 14.66L108.41 14.66ZM122.94 22L117.58 22L117.58 13.47L119.06 13.47L119.06 20.82L122.94 20.82L122.94 22ZM132.64 22L127.06 22L127.06 13.47L132.60 13.47L132.60 14.66L128.55 14.66L128.55 17.02L132.05 17.02L132.05 18.19L128.55 18.19L128.55 20.82L132.64 20.82L132.64 22Z" fill="#FFFFFF"/><path class="svg__text" d="M158.18 17.80L158.18 17.80Q158.18 16.54 158.78 15.54Q159.38 14.55 160.43 13.99Q161.48 13.43 162.80 13.43L162.80 13.43Q163.95 13.43 164.87 13.84Q165.80 14.25 166.41 15.02L166.41 15.02L164.90 16.39Q164.09 15.40 162.92 15.40L162.92 15.40Q162.23 15.40 161.70 15.70Q161.17 16 160.87 16.54Q160.58 17.09 160.58 17.80L160.58 17.80Q160.58 18.51 160.87 19.05Q161.17 19.60 161.70 19.90Q162.23 20.20 162.92 20.20L162.92 20.20Q164.09 20.20 164.90 19.22L164.90 19.22L166.41 20.58Q165.80 21.35 164.88 21.76Q163.95 22.17 162.80 22.17L162.80 22.17Q161.48 22.17 160.43 21.61Q159.38 21.05 158.78 20.05Q158.18 19.06 158.18 17.80ZM173.33 22L170.95 22L170.95 13.60L174.79 13.60Q175.93 13.60 176.77 13.98Q177.61 14.35 178.07 15.06Q178.52 15.76 178.52 16.71L178.52 16.71Q178.52 17.62 178.10 18.30Q177.67 18.98 176.88 19.36L176.88 19.36L178.69 22L176.14 22L174.62 19.77L173.33 19.77L173.33 22ZM173.33 15.47L173.33 17.93L174.64 17.93Q175.38 17.93 175.75 17.61Q176.12 17.29 176.12 16.71L176.12 16.71Q176.12 16.12 175.75 15.79Q175.38 15.47 174.64 15.47L174.64 15.47L173.33 15.47ZM185.44 18.95L182.23 13.60L184.74 13.60L186.73 16.94L188.73 13.60L191.03 13.60L187.81 18.99L187.81 22L185.44 22L185.44 18.95Z" fill="#FFFFFF" x="157.42"/></svg>